<svg width="259" height="66" viewBox="0 0 259 66" fill="none" xmlns="http://www.w3.org/2000/svg">
<rect width="66" height="66" rx="33" fill="#786960"/>
<rect x="4" y="4" width="58" height="57" rx="28.5" fill="#8A8787"/>
<path d="M48.625 28.7975V19.375C48.625 17.3069 46.9432 15.625 44.8749 15.625H16.7499C14.6818 15.625 13 17.3068 13 19.375V38.125C13 40.1932 14.6818 41.875 16.75 41.875H37.7748C39.0031 46.1969 42.9771 49.375 47.6875 49.375C49.5003 49.375 51.2828 48.898 52.8447 47.9944C53.2924 47.7353 53.4462 47.1622 53.1861 46.7136C52.927 46.265 52.353 46.1102 51.9053 46.3721C50.6291 47.1101 49.1706 47.5 47.6874 47.5C43.0347 47.5 39.2499 43.7152 39.2499 39.0625C39.2499 34.4099 43.0348 30.625 47.6874 30.625C52.3401 30.625 56.1249 34.4099 56.1249 39.0625V40.0001C56.1249 41.0337 55.2836 41.875 54.25 41.875C53.2164 41.875 52.375 41.0337 52.375 40.0001V36.25C52.375 35.7318 51.9557 35.3125 51.4375 35.3125C51.1853 35.3125 50.9587 35.4145 50.7904 35.5762C49.9618 34.8378 48.882 34.375 47.6874 34.375C45.1029 34.375 43 36.4779 43 39.0624C43 41.647 45.1029 43.75 47.6875 43.75C49.0846 43.75 50.3269 43.1233 51.1865 42.1502C51.8656 43.115 52.9829 43.75 54.2501 43.75C56.3182 43.75 58 42.0682 58 40V39.0624C58 33.6926 53.873 29.2734 48.625 28.7975ZM16.75 17.5H44.875C44.9141 17.5 44.9467 17.5199 44.9852 17.5223L31.5834 28.5229C31.1064 28.8233 30.4152 28.761 30.1048 28.5706L16.641 17.5221C16.679 17.5198 16.7114 17.5 16.75 17.5ZM46.75 28.7975C41.502 29.2734 37.375 33.6926 37.375 39.0625C37.375 39.3789 37.3944 39.6908 37.4224 40.0001H16.75C15.7164 40.0001 14.8751 39.1587 14.8751 38.1251V19.375C14.8751 19.1095 14.9337 18.8588 15.0337 18.6297L28.998 30.0812C29.5437 30.4374 30.1708 30.6251 30.8126 30.6251C31.4297 30.6251 32.033 30.4512 32.564 30.1216C32.6171 30.0932 32.6675 30.0594 32.7151 30.02L46.5913 18.6295C46.6914 18.8588 46.7501 19.1095 46.7501 19.3751V28.7975H46.75ZM47.6875 41.875C46.1366 41.875 44.875 40.6134 44.875 39.0625C44.875 37.5116 46.1366 36.25 47.6875 36.25C49.2384 36.25 50.5 37.5116 50.5 39.0625C50.5 40.6134 49.2384 41.875 47.6875 41.875Z" fill="white"/>
<path d="M103.432 13.2637C103.321 14.7936 102.755 15.998 101.732 16.877C100.717 17.7559 99.3757 18.1953 97.709 18.1953C95.8861 18.1953 94.4505 17.5833 93.4023 16.3594C92.3607 15.1289 91.8398 13.4427 91.8398 11.3008V10.4316C91.8398 9.06445 92.0807 7.86003 92.5625 6.81836C93.0443 5.77669 93.7311 4.97917 94.623 4.42578C95.5215 3.86589 96.5632 3.58594 97.748 3.58594C99.3887 3.58594 100.71 4.02539 101.713 4.9043C102.715 5.7832 103.295 7.01693 103.451 8.60547H100.521C100.45 7.6875 100.193 7.02344 99.75 6.61328C99.3138 6.19661 98.6465 5.98828 97.748 5.98828C96.7715 5.98828 96.0391 6.33984 95.5508 7.04297C95.069 7.73958 94.8216 8.82357 94.8086 10.2949V11.3691C94.8086 12.9056 95.0397 14.0286 95.502 14.7383C95.9707 15.4479 96.7064 15.8027 97.709 15.8027C98.6139 15.8027 99.2878 15.5977 99.7305 15.1875C100.18 14.7708 100.437 14.1296 100.502 13.2637H103.432ZM104.73 12.6191C104.73 11.571 104.932 10.6367 105.336 9.81641C105.74 8.99609 106.319 8.36133 107.074 7.91211C107.836 7.46289 108.718 7.23828 109.721 7.23828C111.146 7.23828 112.309 7.67448 113.207 8.54688C114.112 9.41927 114.617 10.6042 114.721 12.1016L114.74 12.8242C114.74 14.4453 114.288 15.7474 113.383 16.7305C112.478 17.707 111.264 18.1953 109.74 18.1953C108.217 18.1953 106.999 17.707 106.088 16.7305C105.183 15.7539 104.73 14.4258 104.73 12.7461V12.6191ZM107.553 12.8242C107.553 13.8268 107.742 14.5951 108.119 15.1289C108.497 15.6562 109.037 15.9199 109.74 15.9199C110.424 15.9199 110.958 15.6595 111.342 15.1387C111.726 14.6113 111.918 13.7715 111.918 12.6191C111.918 11.6361 111.726 10.8743 111.342 10.334C110.958 9.79362 110.417 9.52344 109.721 9.52344C109.031 9.52344 108.497 9.79362 108.119 10.334C107.742 10.8678 107.553 11.6979 107.553 12.8242ZM122.416 10.0801C122.032 10.028 121.693 10.002 121.4 10.002C120.333 10.002 119.633 10.3633 119.301 11.0859V18H116.479V7.43359H119.145L119.223 8.69336C119.789 7.72331 120.574 7.23828 121.576 7.23828C121.889 7.23828 122.182 7.2806 122.455 7.36523L122.416 10.0801ZM129.721 10.0801C129.337 10.028 128.998 10.002 128.705 10.002C127.637 10.002 126.938 10.3633 126.605 11.0859V18H123.783V7.43359H126.449L126.527 8.69336C127.094 7.72331 127.878 7.23828 128.881 7.23828C129.193 7.23828 129.486 7.2806 129.76 7.36523L129.721 10.0801ZM135.756 18.1953C134.206 18.1953 132.943 17.7201 131.967 16.7695C130.997 15.819 130.512 14.5527 130.512 12.9707V12.6973C130.512 11.6361 130.717 10.6888 131.127 9.85547C131.537 9.01562 132.117 8.37109 132.865 7.92188C133.62 7.46615 134.48 7.23828 135.443 7.23828C136.889 7.23828 138.025 7.69401 138.852 8.60547C139.685 9.51693 140.102 10.8092 140.102 12.4824V13.6348H133.373C133.464 14.3249 133.738 14.8783 134.193 15.2949C134.656 15.7116 135.238 15.9199 135.941 15.9199C137.029 15.9199 137.878 15.526 138.49 14.7383L139.877 16.291C139.454 16.89 138.881 17.3587 138.158 17.6973C137.436 18.0293 136.635 18.1953 135.756 18.1953ZM135.434 9.52344C134.874 9.52344 134.418 9.71224 134.066 10.0898C133.721 10.4674 133.5 11.0078 133.402 11.7109H137.328V11.4863C137.315 10.8613 137.146 10.3796 136.82 10.041C136.495 9.69596 136.033 9.52344 135.434 9.52344ZM141.273 12.6191C141.273 11.571 141.475 10.6367 141.879 9.81641C142.283 8.99609 142.862 8.36133 143.617 7.91211C144.379 7.46289 145.261 7.23828 146.264 7.23828C147.689 7.23828 148.852 7.67448 149.75 8.54688C150.655 9.41927 151.16 10.6042 151.264 12.1016L151.283 12.8242C151.283 14.4453 150.831 15.7474 149.926 16.7305C149.021 17.707 147.807 18.1953 146.283 18.1953C144.76 18.1953 143.542 17.707 142.631 16.7305C141.726 15.7539 141.273 14.4258 141.273 12.7461V12.6191ZM144.096 12.8242C144.096 13.8268 144.285 14.5951 144.662 15.1289C145.04 15.6562 145.58 15.9199 146.283 15.9199C146.967 15.9199 147.501 15.6595 147.885 15.1387C148.269 14.6113 148.461 13.7715 148.461 12.6191C148.461 11.6361 148.269 10.8743 147.885 10.334C147.501 9.79362 146.96 9.52344 146.264 9.52344C145.574 9.52344 145.04 9.79362 144.662 10.334C144.285 10.8678 144.096 11.6979 144.096 12.8242ZM166.742 11.8379H161.117V15.6465H167.719V18H158.188V3.78125H167.699V6.1543H161.117V9.54297H166.742V11.8379ZM172.23 18H169.398V3H172.23V18ZM179.428 18.1953C177.878 18.1953 176.615 17.7201 175.639 16.7695C174.669 15.819 174.184 14.5527 174.184 12.9707V12.6973C174.184 11.6361 174.389 10.6888 174.799 9.85547C175.209 9.01562 175.788 8.37109 176.537 7.92188C177.292 7.46615 178.152 7.23828 179.115 7.23828C180.561 7.23828 181.697 7.69401 182.523 8.60547C183.357 9.51693 183.773 10.8092 183.773 12.4824V13.6348H177.045C177.136 14.3249 177.41 14.8783 177.865 15.2949C178.327 15.7116 178.91 15.9199 179.613 15.9199C180.701 15.9199 181.55 15.526 182.162 14.7383L183.549 16.291C183.126 16.89 182.553 17.3587 181.83 17.6973C181.107 18.0293 180.307 18.1953 179.428 18.1953ZM179.105 9.52344C178.546 9.52344 178.09 9.71224 177.738 10.0898C177.393 10.4674 177.172 11.0078 177.074 11.7109H181V11.4863C180.987 10.8613 180.818 10.3796 180.492 10.041C180.167 9.69596 179.704 9.52344 179.105 9.52344ZM189.779 15.9199C190.3 15.9199 190.723 15.7767 191.049 15.4902C191.374 15.2038 191.544 14.8229 191.557 14.3477H194.203C194.197 15.0638 194.001 15.7214 193.617 16.3203C193.233 16.9128 192.706 17.375 192.035 17.707C191.371 18.0326 190.635 18.1953 189.828 18.1953C188.318 18.1953 187.126 17.7168 186.254 16.7598C185.382 15.7962 184.945 14.4681 184.945 12.7754V12.5898C184.945 10.9622 185.378 9.66341 186.244 8.69336C187.11 7.72331 188.298 7.23828 189.809 7.23828C191.13 7.23828 192.188 7.61589 192.982 8.37109C193.783 9.11979 194.19 10.1191 194.203 11.3691H191.557C191.544 10.8223 191.374 10.3796 191.049 10.041C190.723 9.69596 190.294 9.52344 189.76 9.52344C189.102 9.52344 188.604 9.76432 188.266 10.2461C187.934 10.7214 187.768 11.4961 187.768 12.5703V12.8633C187.768 13.9505 187.934 14.7318 188.266 15.207C188.598 15.6823 189.102 15.9199 189.779 15.9199ZM199.193 4.83594V7.43359H201V9.50391H199.193V14.7773C199.193 15.168 199.268 15.4479 199.418 15.6172C199.568 15.7865 199.854 15.8711 200.277 15.8711C200.59 15.8711 200.867 15.8483 201.107 15.8027V17.9414C200.554 18.1107 199.984 18.1953 199.398 18.1953C197.419 18.1953 196.41 17.196 196.371 15.1973V9.50391H194.828V7.43359H196.371V4.83594H199.193ZM208.51 10.0801C208.126 10.028 207.787 10.002 207.494 10.002C206.426 10.002 205.727 10.3633 205.395 11.0859V18H202.572V7.43359H205.238L205.316 8.69336C205.883 7.72331 206.667 7.23828 207.67 7.23828C207.982 7.23828 208.275 7.2806 208.549 7.36523L208.51 10.0801ZM209.086 12.6191C209.086 11.571 209.288 10.6367 209.691 9.81641C210.095 8.99609 210.674 8.36133 211.43 7.91211C212.191 7.46289 213.074 7.23828 214.076 7.23828C215.502 7.23828 216.664 7.67448 217.562 8.54688C218.467 9.41927 218.972 10.6042 219.076 12.1016L219.096 12.8242C219.096 14.4453 218.643 15.7474 217.738 16.7305C216.833 17.707 215.619 18.1953 214.096 18.1953C212.572 18.1953 211.355 17.707 210.443 16.7305C209.538 15.7539 209.086 14.4258 209.086 12.7461V12.6191ZM211.908 12.8242C211.908 13.8268 212.097 14.5951 212.475 15.1289C212.852 15.6562 213.393 15.9199 214.096 15.9199C214.779 15.9199 215.313 15.6595 215.697 15.1387C216.081 14.6113 216.273 13.7715 216.273 12.6191C216.273 11.6361 216.081 10.8743 215.697 10.334C215.313 9.79362 214.773 9.52344 214.076 9.52344C213.386 9.52344 212.852 9.79362 212.475 10.334C212.097 10.8678 211.908 11.6979 211.908 12.8242ZM214.633 3H217.709L215.004 6.02734H212.709L214.633 3ZM223.432 7.43359L223.52 8.6543C224.275 7.71029 225.287 7.23828 226.557 7.23828C227.676 7.23828 228.51 7.56706 229.057 8.22461C229.604 8.88216 229.883 9.86523 229.896 11.1738V18H227.074V11.2422C227.074 10.6432 226.944 10.2103 226.684 9.94336C226.423 9.66992 225.99 9.5332 225.385 9.5332C224.59 9.5332 223.995 9.87174 223.598 10.5488V18H220.775V7.43359H223.432ZM235.023 18H232.191V7.43359H235.023V18ZM232.025 4.69922C232.025 4.27604 232.165 3.92773 232.445 3.6543C232.732 3.38086 233.119 3.24414 233.607 3.24414C234.089 3.24414 234.473 3.38086 234.76 3.6543C235.046 3.92773 235.189 4.27604 235.189 4.69922C235.189 5.12891 235.043 5.48047 234.75 5.75391C234.464 6.02734 234.083 6.16406 233.607 6.16406C233.132 6.16406 232.748 6.02734 232.455 5.75391C232.169 5.48047 232.025 5.12891 232.025 4.69922ZM241.752 15.9199C242.273 15.9199 242.696 15.7767 243.021 15.4902C243.347 15.2038 243.516 14.8229 243.529 14.3477H246.176C246.169 15.0638 245.974 15.7214 245.59 16.3203C245.206 16.9128 244.678 17.375 244.008 17.707C243.344 18.0326 242.608 18.1953 241.801 18.1953C240.29 18.1953 239.099 17.7168 238.227 16.7598C237.354 15.7962 236.918 14.4681 236.918 12.7754V12.5898C236.918 10.9622 237.351 9.66341 238.217 8.69336C239.083 7.72331 240.271 7.23828 241.781 7.23828C243.103 7.23828 244.161 7.61589 244.955 8.37109C245.756 9.11979 246.163 10.1191 246.176 11.3691H243.529C243.516 10.8223 243.347 10.3796 243.021 10.041C242.696 9.69596 242.266 9.52344 241.732 9.52344C241.075 9.52344 240.577 9.76432 240.238 10.2461C239.906 10.7214 239.74 11.4961 239.74 12.5703V12.8633C239.74 13.9505 239.906 14.7318 240.238 15.207C240.57 15.6823 241.075 15.9199 241.752 15.9199ZM247.348 12.6191C247.348 11.571 247.549 10.6367 247.953 9.81641C248.357 8.99609 248.936 8.36133 249.691 7.91211C250.453 7.46289 251.335 7.23828 252.338 7.23828C253.764 7.23828 254.926 7.67448 255.824 8.54688C256.729 9.41927 257.234 10.6042 257.338 12.1016L257.357 12.8242C257.357 14.4453 256.905 15.7474 256 16.7305C255.095 17.707 253.881 18.1953 252.357 18.1953C250.834 18.1953 249.617 17.707 248.705 16.7305C247.8 15.7539 247.348 14.4258 247.348 12.7461V12.6191ZM250.17 12.8242C250.17 13.8268 250.359 14.5951 250.736 15.1289C251.114 15.6562 251.654 15.9199 252.357 15.9199C253.041 15.9199 253.575 15.6595 253.959 15.1387C254.343 14.6113 254.535 13.7715 254.535 12.6191C254.535 11.6361 254.343 10.8743 253.959 10.334C253.575 9.79362 253.035 9.52344 252.338 9.52344C251.648 9.52344 251.114 9.79362 250.736 10.334C250.359 10.8678 250.17 11.6979 250.17 12.8242Z" fill="white"/>
<path d="M91.6348 32V24.8906H93.8223C94.4473 24.8906 95.0055 25.0322 95.4971 25.3154C95.9919 25.5954 96.3776 25.9958 96.6543 26.5166C96.931 27.0342 97.0693 27.6234 97.0693 28.2842V28.6113C97.0693 29.2721 96.9326 29.8597 96.6592 30.374C96.389 30.8883 96.0065 31.2871 95.5117 31.5703C95.0169 31.8535 94.4587 31.9967 93.8369 32H91.6348ZM93.0996 26.0771V30.8232H93.8076C94.3805 30.8232 94.8184 30.6361 95.1211 30.2617C95.4238 29.8874 95.5785 29.3519 95.585 28.6553V28.2793C95.585 27.5566 95.4352 27.0098 95.1357 26.6387C94.8363 26.2643 94.3984 26.0771 93.8223 26.0771H93.0996ZM99.5352 32H98.1191V26.7168H99.5352V32ZM98.0361 25.3496C98.0361 25.138 98.1061 24.9639 98.2461 24.8271C98.3893 24.6904 98.583 24.6221 98.8271 24.6221C99.068 24.6221 99.2601 24.6904 99.4033 24.8271C99.5465 24.9639 99.6182 25.138 99.6182 25.3496C99.6182 25.5645 99.5449 25.7402 99.3984 25.877C99.2552 26.0137 99.0648 26.082 98.8271 26.082C98.5895 26.082 98.3975 26.0137 98.251 25.877C98.1077 25.7402 98.0361 25.5645 98.0361 25.3496ZM103.671 28.04C103.479 28.014 103.31 28.001 103.163 28.001C102.629 28.001 102.279 28.1816 102.113 28.543V32H100.702V26.7168H102.035L102.074 27.3467C102.357 26.8617 102.75 26.6191 103.251 26.6191C103.407 26.6191 103.554 26.6403 103.69 26.6826L103.671 28.04ZM106.688 32.0977C105.914 32.0977 105.282 31.86 104.794 31.3848C104.309 30.9095 104.066 30.2764 104.066 29.4854V29.3486C104.066 28.818 104.169 28.3444 104.374 27.9277C104.579 27.5078 104.869 27.1855 105.243 26.9609C105.621 26.7331 106.05 26.6191 106.532 26.6191C107.255 26.6191 107.823 26.847 108.236 27.3027C108.653 27.7585 108.861 28.4046 108.861 29.2412V29.8174H105.497C105.543 30.1624 105.679 30.4391 105.907 30.6475C106.138 30.8558 106.43 30.96 106.781 30.96C107.325 30.96 107.75 30.763 108.056 30.3691L108.749 31.1455C108.537 31.445 108.251 31.6794 107.89 31.8486C107.528 32.0146 107.128 32.0977 106.688 32.0977ZM106.527 27.7617C106.247 27.7617 106.02 27.8561 105.844 28.0449C105.671 28.2337 105.561 28.5039 105.512 28.8555H107.475V28.7432C107.468 28.4307 107.383 28.1898 107.221 28.0205C107.058 27.848 106.827 27.7617 106.527 27.7617ZM111.864 30.96C112.125 30.96 112.336 30.8883 112.499 30.7451C112.662 30.6019 112.746 30.4115 112.753 30.1738H114.076C114.073 30.5319 113.975 30.8607 113.783 31.1602C113.591 31.4564 113.327 31.6875 112.992 31.8535C112.66 32.0163 112.292 32.0977 111.889 32.0977C111.133 32.0977 110.538 31.8584 110.102 31.3799C109.665 30.8981 109.447 30.234 109.447 29.3877V29.2949C109.447 28.4811 109.664 27.8317 110.097 27.3467C110.53 26.8617 111.124 26.6191 111.879 26.6191C112.54 26.6191 113.069 26.8079 113.466 27.1855C113.866 27.5599 114.07 28.0596 114.076 28.6846H112.753C112.746 28.4111 112.662 28.1898 112.499 28.0205C112.336 27.848 112.121 27.7617 111.854 27.7617C111.526 27.7617 111.277 27.8822 111.107 28.123C110.941 28.3607 110.858 28.748 110.858 29.2852V29.4316C110.858 29.9753 110.941 30.3659 111.107 30.6035C111.273 30.8411 111.526 30.96 111.864 30.96ZM117.079 30.96C117.34 30.96 117.551 30.8883 117.714 30.7451C117.877 30.6019 117.961 30.4115 117.968 30.1738H119.291C119.288 30.5319 119.19 30.8607 118.998 31.1602C118.806 31.4564 118.542 31.6875 118.207 31.8535C117.875 32.0163 117.507 32.0977 117.104 32.0977C116.348 32.0977 115.753 31.8584 115.316 31.3799C114.88 30.8981 114.662 30.234 114.662 29.3877V29.2949C114.662 28.4811 114.879 27.8317 115.312 27.3467C115.744 26.8617 116.339 26.6191 117.094 26.6191C117.755 26.6191 118.284 26.8079 118.681 27.1855C119.081 27.5599 119.285 28.0596 119.291 28.6846H117.968C117.961 28.4111 117.877 28.1898 117.714 28.0205C117.551 27.848 117.336 27.7617 117.069 27.7617C116.741 27.7617 116.492 27.8822 116.322 28.123C116.156 28.3607 116.073 28.748 116.073 29.2852V29.4316C116.073 29.9753 116.156 30.3659 116.322 30.6035C116.488 30.8411 116.741 30.96 117.079 30.96ZM121.586 32H120.17V26.7168H121.586V32ZM120.087 25.3496C120.087 25.138 120.157 24.9639 120.297 24.8271C120.44 24.6904 120.634 24.6221 120.878 24.6221C121.119 24.6221 121.311 24.6904 121.454 24.8271C121.597 24.9639 121.669 25.138 121.669 25.3496C121.669 25.5645 121.596 25.7402 121.449 25.877C121.306 26.0137 121.116 26.082 120.878 26.082C120.64 26.082 120.448 26.0137 120.302 25.877C120.159 25.7402 120.087 25.5645 120.087 25.3496ZM122.533 29.3096C122.533 28.7855 122.634 28.3184 122.836 27.9082C123.038 27.498 123.327 27.1807 123.705 26.9561C124.086 26.7314 124.527 26.6191 125.028 26.6191C125.741 26.6191 126.322 26.8372 126.771 27.2734C127.224 27.7096 127.476 28.3021 127.528 29.0508L127.538 29.4121C127.538 30.2227 127.312 30.8737 126.859 31.3652C126.407 31.8535 125.8 32.0977 125.038 32.0977C124.276 32.0977 123.668 31.8535 123.212 31.3652C122.759 30.877 122.533 30.2129 122.533 29.373V29.3096ZM123.944 29.4121C123.944 29.9134 124.039 30.2975 124.228 30.5645C124.416 30.8281 124.687 30.96 125.038 30.96C125.38 30.96 125.647 30.8298 125.839 30.5693C126.031 30.3057 126.127 29.8857 126.127 29.3096C126.127 28.818 126.031 28.4372 125.839 28.167C125.647 27.8968 125.377 27.7617 125.028 27.7617C124.683 27.7617 124.416 27.8968 124.228 28.167C124.039 28.4339 123.944 28.849 123.944 29.4121ZM125.307 24.5H126.845L125.492 26.0137H124.345L125.307 24.5ZM129.706 26.7168L129.75 27.3271C130.128 26.8551 130.634 26.6191 131.269 26.6191C131.828 26.6191 132.245 26.7835 132.519 27.1123C132.792 27.4411 132.932 27.9326 132.938 28.5869V32H131.527V28.6211C131.527 28.3216 131.462 28.1051 131.332 27.9717C131.202 27.835 130.985 27.7666 130.683 27.7666C130.285 27.7666 129.988 27.9359 129.789 28.2744V32H128.378V26.7168H129.706ZM136.283 29.3193C136.283 28.4958 136.467 27.8398 136.835 27.3516C137.206 26.8633 137.712 26.6191 138.354 26.6191C138.868 26.6191 139.293 26.8112 139.628 27.1953V24.5H141.044V32H139.77L139.701 31.4385C139.35 31.8779 138.897 32.0977 138.344 32.0977C137.722 32.0977 137.222 31.8535 136.845 31.3652C136.47 30.8737 136.283 30.1917 136.283 29.3193ZM137.694 29.4219C137.694 29.9167 137.781 30.2959 137.953 30.5596C138.126 30.8232 138.376 30.9551 138.705 30.9551C139.141 30.9551 139.449 30.7712 139.628 30.4033V28.3184C139.452 27.9505 139.148 27.7666 138.715 27.7666C138.035 27.7666 137.694 28.3184 137.694 29.4219ZM144.569 32.0977C143.795 32.0977 143.163 31.86 142.675 31.3848C142.19 30.9095 141.947 30.2764 141.947 29.4854V29.3486C141.947 28.818 142.05 28.3444 142.255 27.9277C142.46 27.5078 142.75 27.1855 143.124 26.9609C143.502 26.7331 143.931 26.6191 144.413 26.6191C145.136 26.6191 145.704 26.847 146.117 27.3027C146.534 27.7585 146.742 28.4046 146.742 29.2412V29.8174H143.378C143.424 30.1624 143.56 30.4391 143.788 30.6475C144.019 30.8558 144.311 30.96 144.662 30.96C145.206 30.96 145.631 30.763 145.937 30.3691L146.63 31.1455C146.418 31.445 146.132 31.6794 145.771 31.8486C145.409 32.0146 145.009 32.0977 144.569 32.0977ZM144.408 27.7617C144.128 27.7617 143.9 27.8561 143.725 28.0449C143.552 28.2337 143.441 28.5039 143.393 28.8555H145.355V28.7432C145.349 28.4307 145.264 28.1898 145.102 28.0205C144.939 27.848 144.708 27.7617 144.408 27.7617ZM152.235 30.96C152.496 30.96 152.707 30.8883 152.87 30.7451C153.033 30.6019 153.118 30.4115 153.124 30.1738H154.447C154.444 30.5319 154.346 30.8607 154.154 31.1602C153.962 31.4564 153.699 31.6875 153.363 31.8535C153.031 32.0163 152.663 32.0977 152.26 32.0977C151.505 32.0977 150.909 31.8584 150.473 31.3799C150.036 30.8981 149.818 30.234 149.818 29.3877V29.2949C149.818 28.4811 150.035 27.8317 150.468 27.3467C150.901 26.8617 151.495 26.6191 152.25 26.6191C152.911 26.6191 153.44 26.8079 153.837 27.1855C154.237 27.5599 154.441 28.0596 154.447 28.6846H153.124C153.118 28.4111 153.033 28.1898 152.87 28.0205C152.707 27.848 152.493 27.7617 152.226 27.7617C151.897 27.7617 151.648 27.8822 151.479 28.123C151.312 28.3607 151.229 28.748 151.229 29.2852V29.4316C151.229 29.9753 151.312 30.3659 151.479 30.6035C151.645 30.8411 151.897 30.96 152.235 30.96ZM155.033 29.3096C155.033 28.7855 155.134 28.3184 155.336 27.9082C155.538 27.498 155.827 27.1807 156.205 26.9561C156.586 26.7314 157.027 26.6191 157.528 26.6191C158.241 26.6191 158.822 26.8372 159.271 27.2734C159.724 27.7096 159.976 28.3021 160.028 29.0508L160.038 29.4121C160.038 30.2227 159.812 30.8737 159.359 31.3652C158.907 31.8535 158.3 32.0977 157.538 32.0977C156.776 32.0977 156.168 31.8535 155.712 31.3652C155.259 30.877 155.033 30.2129 155.033 29.373V29.3096ZM156.444 29.4121C156.444 29.9134 156.539 30.2975 156.728 30.5645C156.916 30.8281 157.187 30.96 157.538 30.96C157.88 30.96 158.147 30.8298 158.339 30.5693C158.531 30.3057 158.627 29.8857 158.627 29.3096C158.627 28.818 158.531 28.4372 158.339 28.167C158.147 27.8968 157.877 27.7617 157.528 27.7617C157.183 27.7617 156.916 27.8968 156.728 28.167C156.539 28.4339 156.444 28.849 156.444 29.4121ZM163.876 28.04C163.684 28.014 163.515 28.001 163.368 28.001C162.834 28.001 162.484 28.1816 162.318 28.543V32H160.907V26.7168H162.24L162.279 27.3467C162.562 26.8617 162.955 26.6191 163.456 26.6191C163.612 26.6191 163.759 26.6403 163.896 26.6826L163.876 28.04ZM167.528 28.04C167.336 28.014 167.167 28.001 167.021 28.001C166.487 28.001 166.137 28.1816 165.971 28.543V32H164.56V26.7168H165.893L165.932 27.3467C166.215 26.8617 166.607 26.6191 167.108 26.6191C167.265 26.6191 167.411 26.6403 167.548 26.6826L167.528 28.04ZM170.546 32.0977C169.771 32.0977 169.14 31.86 168.651 31.3848C168.166 30.9095 167.924 30.2764 167.924 29.4854V29.3486C167.924 28.818 168.026 28.3444 168.231 27.9277C168.437 27.5078 168.726 27.1855 169.101 26.9609C169.478 26.7331 169.908 26.6191 170.39 26.6191C171.112 26.6191 171.68 26.847 172.094 27.3027C172.51 27.7585 172.719 28.4046 172.719 29.2412V29.8174H169.354C169.4 30.1624 169.537 30.4391 169.765 30.6475C169.996 30.8558 170.287 30.96 170.639 30.96C171.182 30.96 171.607 30.763 171.913 30.3691L172.606 31.1455C172.395 31.445 172.108 31.6794 171.747 31.8486C171.386 32.0146 170.985 32.0977 170.546 32.0977ZM170.385 27.7617C170.105 27.7617 169.877 27.8561 169.701 28.0449C169.529 28.2337 169.418 28.5039 169.369 28.8555H171.332V28.7432C171.326 28.4307 171.241 28.1898 171.078 28.0205C170.915 27.848 170.684 27.7617 170.385 27.7617ZM173.305 29.3096C173.305 28.7855 173.406 28.3184 173.607 27.9082C173.809 27.498 174.099 27.1807 174.477 26.9561C174.857 26.7314 175.299 26.6191 175.8 26.6191C176.513 26.6191 177.094 26.8372 177.543 27.2734C177.995 27.7096 178.248 28.3021 178.3 29.0508L178.31 29.4121C178.31 30.2227 178.083 30.8737 177.631 31.3652C177.178 31.8535 176.571 32.0977 175.81 32.0977C175.048 32.0977 174.439 31.8535 173.983 31.3652C173.531 30.877 173.305 30.2129 173.305 29.373V29.3096ZM174.716 29.4121C174.716 29.9134 174.81 30.2975 174.999 30.5645C175.188 30.8281 175.458 30.96 175.81 30.96C176.151 30.96 176.418 30.8298 176.61 30.5693C176.802 30.3057 176.898 29.8857 176.898 29.3096C176.898 28.818 176.802 28.4372 176.61 28.167C176.418 27.8968 176.148 27.7617 175.8 27.7617C175.455 27.7617 175.188 27.8968 174.999 28.167C174.81 28.4339 174.716 28.849 174.716 29.4121Z" fill="#8A8787"/>
</svg>
