<svg width="179" height="66" viewBox="0 0 179 66" fill="none" xmlns="http://www.w3.org/2000/svg">
<rect width="66" height="66" rx="33" fill="#786960"/>
<rect x="4" y="4" width="58" height="57" rx="28.5" fill="#8A8787"/>
<path d="M40.0125 39.7321C44.8011 32.218 44.1991 33.1555 44.3371 32.9596C46.0805 30.5006 47.002 27.6064 47.002 24.5898C47.002 16.59 40.5103 10 32.5 10C24.5158 10 17.998 16.577 17.998 24.5898C17.998 27.6045 18.9388 30.5744 20.7394 33.0665L24.9873 39.7322C20.4455 40.4301 12.7246 42.51 12.7246 47.0898C12.7246 48.7593 13.8143 51.1385 19.0054 52.9925C22.6302 54.287 27.4226 55 32.5 55C41.9944 55 52.2754 52.3218 52.2754 47.0898C52.2754 42.5092 44.5635 40.4315 40.0125 39.7321ZM22.9418 31.6163C22.9273 31.5936 22.9122 31.5714 22.8964 31.5496C21.3981 29.4884 20.6348 27.0456 20.6348 24.5898C20.6348 17.9965 25.9439 12.6367 32.5 12.6367C39.0425 12.6367 44.3652 17.9988 44.3652 24.5898C44.3652 27.0496 43.6163 29.4095 42.1991 31.4164C42.0721 31.5839 42.7347 30.5545 32.5 46.6143L22.9418 31.6163ZM32.5 52.3633C22.1294 52.3633 15.3613 49.315 15.3613 47.0898C15.3613 45.5943 18.839 43.1352 26.5452 42.1767L31.3882 49.776C31.6302 50.1558 32.0495 50.3857 32.4999 50.3857C32.9504 50.3857 33.3697 50.1557 33.6116 49.776L38.4545 42.1767C46.1609 43.1352 49.6387 45.5943 49.6387 47.0898C49.6387 49.2961 42.9315 52.3633 32.5 52.3633Z" fill="white"/>
<path d="M32.5 17.998C28.8653 17.998 25.9082 20.9551 25.9082 24.5898C25.9082 28.2246 28.8653 31.1816 32.5 31.1816C36.1347 31.1816 39.0918 28.2246 39.0918 24.5898C39.0918 20.9551 36.1347 17.998 32.5 17.998ZM32.5 28.5449C30.3192 28.5449 28.5449 26.7707 28.5449 24.5898C28.5449 22.409 30.3192 20.6348 32.5 20.6348C34.6808 20.6348 36.4551 22.409 36.4551 24.5898C36.4551 26.7707 34.6808 28.5449 32.5 28.5449Z" fill="white"/>
<path d="M95.1992 15.6465H101.42V18H92.2695V3.78125H95.1992V15.6465ZM102.484 12.6191C102.484 11.571 102.686 10.6367 103.09 9.81641C103.493 8.99609 104.073 8.36133 104.828 7.91211C105.59 7.46289 106.472 7.23828 107.475 7.23828C108.9 7.23828 110.062 7.67448 110.961 8.54688C111.866 9.41927 112.37 10.6042 112.475 12.1016L112.494 12.8242C112.494 14.4453 112.042 15.7474 111.137 16.7305C110.232 17.707 109.018 18.1953 107.494 18.1953C105.971 18.1953 104.753 17.707 103.842 16.7305C102.937 15.7539 102.484 14.4258 102.484 12.7461V12.6191ZM105.307 12.8242C105.307 13.8268 105.495 14.5951 105.873 15.1289C106.251 15.6562 106.791 15.9199 107.494 15.9199C108.178 15.9199 108.712 15.6595 109.096 15.1387C109.48 14.6113 109.672 13.7715 109.672 12.6191C109.672 11.6361 109.48 10.8743 109.096 10.334C108.712 9.79362 108.171 9.52344 107.475 9.52344C106.785 9.52344 106.251 9.79362 105.873 10.334C105.495 10.8678 105.307 11.6979 105.307 12.8242ZM118.627 15.9199C119.148 15.9199 119.571 15.7767 119.896 15.4902C120.222 15.2038 120.391 14.8229 120.404 14.3477H123.051C123.044 15.0638 122.849 15.7214 122.465 16.3203C122.081 16.9128 121.553 17.375 120.883 17.707C120.219 18.0326 119.483 18.1953 118.676 18.1953C117.165 18.1953 115.974 17.7168 115.102 16.7598C114.229 15.7962 113.793 14.4681 113.793 12.7754V12.5898C113.793 10.9622 114.226 9.66341 115.092 8.69336C115.958 7.72331 117.146 7.23828 118.656 7.23828C119.978 7.23828 121.036 7.61589 121.83 8.37109C122.631 9.11979 123.038 10.1191 123.051 11.3691H120.404C120.391 10.8223 120.222 10.3796 119.896 10.041C119.571 9.69596 119.141 9.52344 118.607 9.52344C117.95 9.52344 117.452 9.76432 117.113 10.2461C116.781 10.7214 116.615 11.4961 116.615 12.5703V12.8633C116.615 13.9505 116.781 14.7318 117.113 15.207C117.445 15.6823 117.95 15.9199 118.627 15.9199ZM130.785 18C130.655 17.7461 130.561 17.4303 130.502 17.0527C129.818 17.8145 128.93 18.1953 127.836 18.1953C126.801 18.1953 125.941 17.8958 125.258 17.2969C124.581 16.6979 124.242 15.9427 124.242 15.0312C124.242 13.9115 124.656 13.0521 125.482 12.4531C126.316 11.8542 127.517 11.5514 129.086 11.5449H130.385V10.9395C130.385 10.4512 130.258 10.0605 130.004 9.76758C129.757 9.47461 129.363 9.32812 128.822 9.32812C128.347 9.32812 127.973 9.44206 127.699 9.66992C127.432 9.89779 127.299 10.2103 127.299 10.6074H124.477C124.477 9.99544 124.665 9.42904 125.043 8.9082C125.421 8.38737 125.954 7.98047 126.645 7.6875C127.335 7.38802 128.109 7.23828 128.969 7.23828C130.271 7.23828 131.303 7.56706 132.064 8.22461C132.833 8.87565 133.217 9.79362 133.217 10.9785V15.5586C133.223 16.5612 133.363 17.3197 133.637 17.834V18H130.785ZM128.451 16.0371C128.868 16.0371 129.252 15.946 129.604 15.7637C129.955 15.5749 130.215 15.3242 130.385 15.0117V13.1953H129.33C127.917 13.1953 127.165 13.6836 127.074 14.6602L127.064 14.8262C127.064 15.1777 127.188 15.4674 127.436 15.6953C127.683 15.9232 128.021 16.0371 128.451 16.0371ZM138.363 18H135.531V3H138.363V18ZM143.676 18H140.844V7.43359H143.676V18ZM140.678 4.69922C140.678 4.27604 140.818 3.92773 141.098 3.6543C141.384 3.38086 141.771 3.24414 142.26 3.24414C142.742 3.24414 143.126 3.38086 143.412 3.6543C143.699 3.92773 143.842 4.27604 143.842 4.69922C143.842 5.12891 143.695 5.48047 143.402 5.75391C143.116 6.02734 142.735 6.16406 142.26 6.16406C141.785 6.16406 141.4 6.02734 141.107 5.75391C140.821 5.48047 140.678 5.12891 140.678 4.69922ZM145.57 12.6387C145.57 10.9915 145.938 9.67969 146.674 8.70312C147.416 7.72656 148.428 7.23828 149.711 7.23828C150.74 7.23828 151.589 7.6224 152.26 8.39062V3H155.092V18H152.543L152.406 16.877C151.703 17.7559 150.798 18.1953 149.691 18.1953C148.448 18.1953 147.449 17.707 146.693 16.7305C145.945 15.7474 145.57 14.3835 145.57 12.6387ZM148.393 12.8438C148.393 13.8333 148.565 14.5918 148.91 15.1191C149.255 15.6465 149.757 15.9102 150.414 15.9102C151.286 15.9102 151.902 15.5423 152.26 14.8066V10.6367C151.908 9.90104 151.299 9.5332 150.434 9.5332C149.073 9.5332 148.393 10.6367 148.393 12.8438ZM163.402 18C163.272 17.7461 163.178 17.4303 163.119 17.0527C162.436 17.8145 161.547 18.1953 160.453 18.1953C159.418 18.1953 158.559 17.8958 157.875 17.2969C157.198 16.6979 156.859 15.9427 156.859 15.0312C156.859 13.9115 157.273 13.0521 158.1 12.4531C158.933 11.8542 160.134 11.5514 161.703 11.5449H163.002V10.9395C163.002 10.4512 162.875 10.0605 162.621 9.76758C162.374 9.47461 161.98 9.32812 161.439 9.32812C160.964 9.32812 160.59 9.44206 160.316 9.66992C160.049 9.89779 159.916 10.2103 159.916 10.6074H157.094C157.094 9.99544 157.283 9.42904 157.66 8.9082C158.038 8.38737 158.572 7.98047 159.262 7.6875C159.952 7.38802 160.727 7.23828 161.586 7.23828C162.888 7.23828 163.92 7.56706 164.682 8.22461C165.45 8.87565 165.834 9.79362 165.834 10.9785V15.5586C165.84 16.5612 165.98 17.3197 166.254 17.834V18H163.402ZM161.068 16.0371C161.485 16.0371 161.869 15.946 162.221 15.7637C162.572 15.5749 162.833 15.3242 163.002 15.0117V13.1953H161.947C160.535 13.1953 159.783 13.6836 159.691 14.6602L159.682 14.8262C159.682 15.1777 159.805 15.4674 160.053 15.6953C160.3 15.9232 160.639 16.0371 161.068 16.0371ZM167.562 12.6387C167.562 10.9915 167.93 9.67969 168.666 8.70312C169.408 7.72656 170.421 7.23828 171.703 7.23828C172.732 7.23828 173.581 7.6224 174.252 8.39062V3H177.084V18H174.535L174.398 16.877C173.695 17.7559 172.79 18.1953 171.684 18.1953C170.44 18.1953 169.441 17.707 168.686 16.7305C167.937 15.7474 167.562 14.3835 167.562 12.6387ZM170.385 12.8438C170.385 13.8333 170.557 14.5918 170.902 15.1191C171.247 15.6465 171.749 15.9102 172.406 15.9102C173.279 15.9102 173.894 15.5423 174.252 14.8066V10.6367C173.9 9.90104 173.292 9.5332 172.426 9.5332C171.065 9.5332 170.385 10.6367 170.385 12.8438Z" fill="white"/>
<path d="M97.2158 29.6318C97.1605 30.3968 96.8773 30.999 96.3662 31.4385C95.8584 31.8779 95.1878 32.0977 94.3545 32.0977C93.443 32.0977 92.7253 31.7917 92.2012 31.1797C91.6803 30.5645 91.4199 29.7214 91.4199 28.6504V28.2158C91.4199 27.5322 91.5404 26.93 91.7812 26.4092C92.0221 25.8883 92.3656 25.4896 92.8115 25.2129C93.2607 24.9329 93.7816 24.793 94.374 24.793C95.1943 24.793 95.8551 25.0127 96.3564 25.4521C96.8577 25.8916 97.1475 26.5085 97.2256 27.3027H95.7607C95.7249 26.8438 95.5964 26.5117 95.375 26.3066C95.1569 26.0983 94.8232 25.9941 94.374 25.9941C93.8857 25.9941 93.5195 26.1699 93.2754 26.5215C93.0345 26.8698 92.9108 27.4118 92.9043 28.1475V28.6846C92.9043 29.4528 93.0199 30.0143 93.251 30.3691C93.4854 30.724 93.8532 30.9014 94.3545 30.9014C94.807 30.9014 95.1439 30.7988 95.3652 30.5938C95.5898 30.3854 95.7184 30.0648 95.751 29.6318H97.2158ZM101.146 32C101.081 31.873 101.034 31.7152 101.005 31.5264C100.663 31.9072 100.219 32.0977 99.6719 32.0977C99.1543 32.0977 98.7246 31.9479 98.3828 31.6484C98.0443 31.349 97.875 30.9714 97.875 30.5156C97.875 29.9557 98.0817 29.526 98.4951 29.2266C98.9118 28.9271 99.5124 28.7757 100.297 28.7725H100.946V28.4697C100.946 28.2256 100.883 28.0303 100.756 27.8838C100.632 27.7373 100.435 27.6641 100.165 27.6641C99.9274 27.6641 99.7402 27.721 99.6035 27.835C99.4701 27.9489 99.4033 28.1051 99.4033 28.3037H97.9922C97.9922 27.9977 98.0866 27.7145 98.2754 27.4541C98.4642 27.1937 98.7311 26.9902 99.0762 26.8438C99.4212 26.694 99.8086 26.6191 100.238 26.6191C100.889 26.6191 101.405 26.7835 101.786 27.1123C102.17 27.4378 102.362 27.8968 102.362 28.4893V30.7793C102.366 31.2806 102.436 31.6598 102.572 31.917V32H101.146ZM99.9795 31.0186C100.188 31.0186 100.38 30.973 100.556 30.8818C100.731 30.7874 100.862 30.6621 100.946 30.5059V29.5977H100.419C99.7126 29.5977 99.3366 29.8418 99.291 30.3301L99.2861 30.4131C99.2861 30.5889 99.348 30.7337 99.4717 30.8477C99.5954 30.9616 99.7646 31.0186 99.9795 31.0186ZM104.936 32H103.52V24.5H104.936V32ZM107.592 32H106.176V24.5H107.592V32ZM111.19 32.0977C110.416 32.0977 109.784 31.86 109.296 31.3848C108.811 30.9095 108.568 30.2764 108.568 29.4854V29.3486C108.568 28.818 108.671 28.3444 108.876 27.9277C109.081 27.5078 109.371 27.1855 109.745 26.9609C110.123 26.7331 110.552 26.6191 111.034 26.6191C111.757 26.6191 112.325 26.847 112.738 27.3027C113.155 27.7585 113.363 28.4046 113.363 29.2412V29.8174H109.999C110.045 30.1624 110.181 30.4391 110.409 30.6475C110.64 30.8558 110.932 30.96 111.283 30.96C111.827 30.96 112.252 30.763 112.558 30.3691L113.251 31.1455C113.039 31.445 112.753 31.6794 112.392 31.8486C112.03 32.0146 111.63 32.0977 111.19 32.0977ZM111.029 27.7617C110.749 27.7617 110.521 27.8561 110.346 28.0449C110.173 28.2337 110.062 28.5039 110.014 28.8555H111.977V28.7432C111.97 28.4307 111.885 28.1898 111.723 28.0205C111.56 27.848 111.329 27.7617 111.029 27.7617ZM119.403 29.5244H116.654V28.3867H119.403V29.5244ZM127.782 29.4072C127.782 30.221 127.597 30.8737 127.226 31.3652C126.858 31.8535 126.36 32.0977 125.731 32.0977C125.198 32.0977 124.766 31.9121 124.438 31.541V34.0312H123.026V26.7168H124.335L124.384 27.2344C124.726 26.8242 125.172 26.6191 125.722 26.6191C126.373 26.6191 126.879 26.86 127.24 27.3418C127.602 27.8236 127.782 28.4876 127.782 29.334V29.4072ZM126.371 29.3047C126.371 28.8132 126.283 28.4339 126.107 28.167C125.935 27.9001 125.683 27.7666 125.351 27.7666C124.908 27.7666 124.604 27.9359 124.438 28.2744V30.4375C124.61 30.7858 124.918 30.96 125.36 30.96C126.034 30.96 126.371 30.4082 126.371 29.3047ZM131.63 28.04C131.438 28.014 131.269 28.001 131.122 28.001C130.588 28.001 130.238 28.1816 130.072 28.543V32H128.661V26.7168H129.994L130.033 27.3467C130.316 26.8617 130.709 26.6191 131.21 26.6191C131.366 26.6191 131.513 26.6403 131.649 26.6826L131.63 28.04ZM131.918 29.3096C131.918 28.7855 132.019 28.3184 132.221 27.9082C132.423 27.498 132.712 27.1807 133.09 26.9561C133.471 26.7314 133.912 26.6191 134.413 26.6191C135.126 26.6191 135.707 26.8372 136.156 27.2734C136.609 27.7096 136.861 28.3021 136.913 29.0508L136.923 29.4121C136.923 30.2227 136.697 30.8737 136.244 31.3652C135.792 31.8535 135.185 32.0977 134.423 32.0977C133.661 32.0977 133.052 31.8535 132.597 31.3652C132.144 30.877 131.918 30.2129 131.918 29.373V29.3096ZM133.329 29.4121C133.329 29.9134 133.424 30.2975 133.612 30.5645C133.801 30.8281 134.071 30.96 134.423 30.96C134.765 30.96 135.032 30.8298 135.224 30.5693C135.416 30.3057 135.512 29.8857 135.512 29.3096C135.512 28.818 135.416 28.4372 135.224 28.167C135.032 27.8968 134.761 27.7617 134.413 27.7617C134.068 27.7617 133.801 27.8968 133.612 28.167C133.424 28.4339 133.329 28.849 133.329 29.4121ZM139.691 30.2764L140.673 26.7168H142.147L140.365 32H139.018L137.235 26.7168H138.71L139.691 30.2764ZM144.262 32H142.846V26.7168H144.262V32ZM142.763 25.3496C142.763 25.138 142.833 24.9639 142.973 24.8271C143.116 24.6904 143.31 24.6221 143.554 24.6221C143.795 24.6221 143.987 24.6904 144.13 24.8271C144.273 24.9639 144.345 25.138 144.345 25.3496C144.345 25.5645 144.271 25.7402 144.125 25.877C143.982 26.0137 143.791 26.082 143.554 26.082C143.316 26.082 143.124 26.0137 142.978 25.877C142.834 25.7402 142.763 25.5645 142.763 25.3496ZM146.728 26.7168L146.771 27.3271C147.149 26.8551 147.655 26.6191 148.29 26.6191C148.85 26.6191 149.267 26.7835 149.54 27.1123C149.813 27.4411 149.953 27.9326 149.96 28.5869V32H148.549V28.6211C148.549 28.3216 148.484 28.1051 148.354 27.9717C148.223 27.835 148.007 27.7666 147.704 27.7666C147.307 27.7666 147.009 27.9359 146.811 28.2744V32H145.399V26.7168H146.728ZM153.231 30.96C153.492 30.96 153.703 30.8883 153.866 30.7451C154.029 30.6019 154.114 30.4115 154.12 30.1738H155.443C155.44 30.5319 155.342 30.8607 155.15 31.1602C154.958 31.4564 154.695 31.6875 154.359 31.8535C154.027 32.0163 153.66 32.0977 153.256 32.0977C152.501 32.0977 151.905 31.8584 151.469 31.3799C151.033 30.8981 150.814 30.234 150.814 29.3877V29.2949C150.814 28.4811 151.031 27.8317 151.464 27.3467C151.897 26.8617 152.491 26.6191 153.246 26.6191C153.907 26.6191 154.436 26.8079 154.833 27.1855C155.233 27.5599 155.437 28.0596 155.443 28.6846H154.12C154.114 28.4111 154.029 28.1898 153.866 28.0205C153.703 27.848 153.489 27.7617 153.222 27.7617C152.893 27.7617 152.644 27.8822 152.475 28.123C152.309 28.3607 152.226 28.748 152.226 29.2852V29.4316C152.226 29.9753 152.309 30.3659 152.475 30.6035C152.641 30.8411 152.893 30.96 153.231 30.96ZM157.738 32H156.322V26.7168H157.738V32ZM156.239 25.3496C156.239 25.138 156.309 24.9639 156.449 24.8271C156.592 24.6904 156.786 24.6221 157.03 24.6221C157.271 24.6221 157.463 24.6904 157.606 24.8271C157.75 24.9639 157.821 25.138 157.821 25.3496C157.821 25.5645 157.748 25.7402 157.602 25.877C157.458 26.0137 157.268 26.082 157.03 26.082C156.793 26.082 156.601 26.0137 156.454 25.877C156.311 25.7402 156.239 25.5645 156.239 25.3496ZM161.967 32C161.902 31.873 161.854 31.7152 161.825 31.5264C161.483 31.9072 161.039 32.0977 160.492 32.0977C159.975 32.0977 159.545 31.9479 159.203 31.6484C158.865 31.349 158.695 30.9714 158.695 30.5156C158.695 29.9557 158.902 29.526 159.315 29.2266C159.732 28.9271 160.333 28.7757 161.117 28.7725H161.767V28.4697C161.767 28.2256 161.703 28.0303 161.576 27.8838C161.452 27.7373 161.256 27.6641 160.985 27.6641C160.748 27.6641 160.561 27.721 160.424 27.835C160.29 27.9489 160.224 28.1051 160.224 28.3037H158.812C158.812 27.9977 158.907 27.7145 159.096 27.4541C159.285 27.1937 159.551 26.9902 159.896 26.8438C160.242 26.694 160.629 26.6191 161.059 26.6191C161.71 26.6191 162.226 26.7835 162.606 27.1123C162.991 27.4378 163.183 27.8968 163.183 28.4893V30.7793C163.186 31.2806 163.256 31.6598 163.393 31.917V32H161.967ZM160.8 31.0186C161.008 31.0186 161.2 30.973 161.376 30.8818C161.552 30.7874 161.682 30.6621 161.767 30.5059V29.5977H161.239C160.533 29.5977 160.157 29.8418 160.111 30.3301L160.106 30.4131C160.106 30.5889 160.168 30.7337 160.292 30.8477C160.416 30.9616 160.585 31.0186 160.8 31.0186Z" fill="#8A8787"/>
</svg>
