<svg width="181" height="66" viewBox="0 0 181 66" fill="none" xmlns="http://www.w3.org/2000/svg">
<rect width="66" height="66" rx="33" fill="#786960"/>
<rect x="4" y="4" width="58" height="57" rx="28.5" fill="#8A8787"/>
<path d="M45.5634 37.8759C44.6422 36.9167 43.531 36.4038 42.3533 36.4038C41.1851 36.4038 40.0644 36.9072 39.1051 37.8664L36.1039 40.8581C35.8569 40.7252 35.61 40.6017 35.3726 40.4782C35.0306 40.3073 34.7077 40.1458 34.4323 39.9749C31.621 38.1893 29.0662 35.8624 26.6158 32.8517C25.4286 31.3511 24.6308 30.0879 24.0515 28.8057C24.8303 28.0934 25.5521 27.3526 26.2549 26.6403C26.5208 26.3744 26.7868 26.0989 27.0527 25.833C29.0472 23.8385 29.0472 21.2552 27.0527 19.2607L24.4599 16.6679C24.1654 16.3734 23.8615 16.0695 23.5766 15.7656C23.0067 15.1767 22.4084 14.5689 21.7911 13.999C20.8698 13.0873 19.7681 12.6029 18.6094 12.6029C17.4507 12.6029 16.33 13.0873 15.3802 13.999C15.3707 14.0085 15.3707 14.0085 15.3612 14.018L12.132 17.2757C10.9163 18.4914 10.223 19.973 10.0711 21.6921C9.84312 24.4654 10.6599 27.0487 11.2868 28.7393C12.8254 32.8897 15.1238 36.7362 18.5524 40.8581C22.7123 45.8254 27.7175 49.7479 33.4351 52.5116C35.6195 53.5469 38.5352 54.7721 41.7929 54.981C41.9924 54.9905 42.2013 55 42.3913 55C44.5852 55 46.4277 54.2117 47.8713 52.6446C47.8808 52.6256 47.8998 52.6161 47.9093 52.5971C48.4032 51.9988 48.9731 51.4574 49.5714 50.8781C49.9798 50.4887 50.3977 50.0803 50.8061 49.6529C51.7463 48.6746 52.2402 47.5349 52.2402 46.3667C52.2402 45.189 51.7369 44.0588 50.7776 43.1091L45.5634 37.8759ZM48.9636 47.8768C48.9541 47.8768 48.9541 47.8863 48.9636 47.8768C48.5932 48.2757 48.2133 48.6366 47.8049 49.0355C47.1875 49.6244 46.5607 50.2417 45.9718 50.9351C45.0126 51.9608 43.8824 52.4452 42.4008 52.4452C42.2583 52.4452 42.1063 52.4452 41.9639 52.4357C39.1431 52.2552 36.5218 51.1535 34.5558 50.2132C29.1802 47.6109 24.4599 43.9164 20.5374 39.2341C17.2987 35.3306 15.1333 31.7215 13.6991 27.8465C12.8159 25.4816 12.4929 23.6391 12.6354 21.901C12.7304 20.7898 13.1578 19.8685 13.9461 19.0802L17.1847 15.8416C17.6501 15.4047 18.144 15.1672 18.6284 15.1672C19.2267 15.1672 19.7111 15.5282 20.015 15.8321C20.0245 15.8416 20.034 15.8511 20.0435 15.8606C20.6229 16.4019 21.1737 16.9623 21.7531 17.5606C22.0475 17.8646 22.3514 18.1685 22.6553 18.4819L25.2482 21.0747C26.2549 22.0815 26.2549 23.0122 25.2482 24.019C24.9727 24.2944 24.7068 24.5698 24.4314 24.8358C23.6336 25.6526 22.8738 26.4124 22.0475 27.1532C22.0285 27.1722 22.0095 27.1817 22 27.2007C21.1832 28.0174 21.3352 28.8152 21.5061 29.3566C21.5156 29.3851 21.5251 29.4136 21.5346 29.4421C22.2089 31.0757 23.1587 32.6143 24.6023 34.4473L24.6118 34.4568C27.2332 37.686 29.9969 40.2028 33.0457 42.1308C33.4351 42.3778 33.834 42.5772 34.2139 42.7672C34.5558 42.9381 34.8787 43.0996 35.1541 43.2705C35.1921 43.2895 35.2301 43.318 35.2681 43.337C35.591 43.4985 35.8949 43.5744 36.2083 43.5744C36.9966 43.5744 37.4905 43.0806 37.652 42.9191L40.9001 39.6709C41.2231 39.348 41.7359 38.9586 42.3343 38.9586C42.9231 38.9586 43.4075 39.329 43.7019 39.652C43.7114 39.6614 43.7114 39.6615 43.7209 39.6709L48.9541 44.9041C49.9323 45.8729 49.9323 46.8701 48.9636 47.8768Z" fill="white"/>
<path d="M34.3191 20.7043C36.8074 21.1222 39.0678 22.2999 40.8724 24.1044C42.6769 25.909 43.8451 28.1694 44.2725 30.6578C44.377 31.2846 44.9183 31.7215 45.5357 31.7215C45.6117 31.7215 45.6782 31.712 45.7541 31.7025C46.457 31.5885 46.9223 30.9237 46.8084 30.2209C46.2955 27.2101 44.8709 24.4653 42.6959 22.2904C40.521 20.1155 37.7762 18.6908 34.7654 18.178C34.0626 18.064 33.4073 18.5294 33.2838 19.2227C33.1604 19.916 33.6162 20.5903 34.3191 20.7043Z" fill="white"/>
<path d="M54.9477 29.8505C54.1025 24.8928 51.7661 20.3814 48.176 16.7913C44.5859 13.2013 40.0746 10.8649 35.1168 10.0196C34.4235 9.89611 33.7682 10.371 33.6447 11.0643C33.5307 11.7671 33.9961 12.4225 34.6989 12.5459C39.1248 13.2962 43.1613 15.3952 46.3714 18.5959C49.5816 21.806 51.6711 25.8425 52.4214 30.2684C52.5259 30.8952 53.0672 31.3321 53.6846 31.3321C53.7605 31.3321 53.827 31.3226 53.903 31.3131C54.5963 31.2086 55.0712 30.5438 54.9477 29.8505Z" fill="white"/>
<path d="M102.973 6.1543H98.6172V18H95.6875V6.1543H91.3906V3.78125H102.973V6.1543ZM108.451 18.1953C106.902 18.1953 105.639 17.7201 104.662 16.7695C103.692 15.819 103.207 14.5527 103.207 12.9707V12.6973C103.207 11.6361 103.412 10.6888 103.822 9.85547C104.232 9.01562 104.812 8.37109 105.561 7.92188C106.316 7.46615 107.175 7.23828 108.139 7.23828C109.584 7.23828 110.72 7.69401 111.547 8.60547C112.38 9.51693 112.797 10.8092 112.797 12.4824V13.6348H106.068C106.16 14.3249 106.433 14.8783 106.889 15.2949C107.351 15.7116 107.934 15.9199 108.637 15.9199C109.724 15.9199 110.574 15.526 111.186 14.7383L112.572 16.291C112.149 16.89 111.576 17.3587 110.854 17.6973C110.131 18.0293 109.33 18.1953 108.451 18.1953ZM108.129 9.52344C107.569 9.52344 107.113 9.71224 106.762 10.0898C106.417 10.4674 106.195 11.0078 106.098 11.7109H110.023V11.4863C110.01 10.8613 109.841 10.3796 109.516 10.041C109.19 9.69596 108.728 9.52344 108.129 9.52344ZM117.387 18H114.555V3H117.387V18ZM124.584 18.1953C123.035 18.1953 121.771 17.7201 120.795 16.7695C119.825 15.819 119.34 14.5527 119.34 12.9707V12.6973C119.34 11.6361 119.545 10.6888 119.955 9.85547C120.365 9.01562 120.945 8.37109 121.693 7.92188C122.449 7.46615 123.308 7.23828 124.271 7.23828C125.717 7.23828 126.853 7.69401 127.68 8.60547C128.513 9.51693 128.93 10.8092 128.93 12.4824V13.6348H122.201C122.292 14.3249 122.566 14.8783 123.021 15.2949C123.484 15.7116 124.066 15.9199 124.77 15.9199C125.857 15.9199 126.706 15.526 127.318 14.7383L128.705 16.291C128.282 16.89 127.709 17.3587 126.986 17.6973C126.264 18.0293 125.463 18.1953 124.584 18.1953ZM124.262 9.52344C123.702 9.52344 123.246 9.71224 122.895 10.0898C122.549 10.4674 122.328 11.0078 122.23 11.7109H126.156V11.4863C126.143 10.8613 125.974 10.3796 125.648 10.041C125.323 9.69596 124.861 9.52344 124.262 9.52344ZM124.516 3H127.592L124.887 6.02734H122.592L124.516 3ZM131.312 18V9.50391H129.74V7.43359H131.312V6.53516C131.312 5.35026 131.651 4.43229 132.328 3.78125C133.012 3.1237 133.965 2.79492 135.189 2.79492C135.58 2.79492 136.059 2.86003 136.625 2.99023L136.596 5.17773C136.361 5.11914 136.075 5.08984 135.736 5.08984C134.675 5.08984 134.145 5.58789 134.145 6.58398V7.43359H136.244V9.50391H134.145V18H131.312ZM137.27 12.6191C137.27 11.571 137.471 10.6367 137.875 9.81641C138.279 8.99609 138.858 8.36133 139.613 7.91211C140.375 7.46289 141.257 7.23828 142.26 7.23828C143.686 7.23828 144.848 7.67448 145.746 8.54688C146.651 9.41927 147.156 10.6042 147.26 12.1016L147.279 12.8242C147.279 14.4453 146.827 15.7474 145.922 16.7305C145.017 17.707 143.803 18.1953 142.279 18.1953C140.756 18.1953 139.538 17.707 138.627 16.7305C137.722 15.7539 137.27 14.4258 137.27 12.7461V12.6191ZM140.092 12.8242C140.092 13.8268 140.281 14.5951 140.658 15.1289C141.036 15.6562 141.576 15.9199 142.279 15.9199C142.963 15.9199 143.497 15.6595 143.881 15.1387C144.265 14.6113 144.457 13.7715 144.457 12.6191C144.457 11.6361 144.265 10.8743 143.881 10.334C143.497 9.79362 142.956 9.52344 142.26 9.52344C141.57 9.52344 141.036 9.79362 140.658 10.334C140.281 10.8678 140.092 11.6979 140.092 12.8242ZM151.615 7.43359L151.703 8.6543C152.458 7.71029 153.471 7.23828 154.74 7.23828C155.86 7.23828 156.693 7.56706 157.24 8.22461C157.787 8.88216 158.067 9.86523 158.08 11.1738V18H155.258V11.2422C155.258 10.6432 155.128 10.2103 154.867 9.94336C154.607 9.66992 154.174 9.5332 153.568 9.5332C152.774 9.5332 152.178 9.87174 151.781 10.5488V18H148.959V7.43359H151.615ZM159.789 12.6191C159.789 11.571 159.991 10.6367 160.395 9.81641C160.798 8.99609 161.378 8.36133 162.133 7.91211C162.895 7.46289 163.777 7.23828 164.779 7.23828C166.205 7.23828 167.367 7.67448 168.266 8.54688C169.171 9.41927 169.675 10.6042 169.779 12.1016L169.799 12.8242C169.799 14.4453 169.346 15.7474 168.441 16.7305C167.536 17.707 166.322 18.1953 164.799 18.1953C163.275 18.1953 162.058 17.707 161.146 16.7305C160.242 15.7539 159.789 14.4258 159.789 12.7461V12.6191ZM162.611 12.8242C162.611 13.8268 162.8 14.5951 163.178 15.1289C163.555 15.6562 164.096 15.9199 164.799 15.9199C165.482 15.9199 166.016 15.6595 166.4 15.1387C166.785 14.6113 166.977 13.7715 166.977 12.6191C166.977 11.6361 166.785 10.8743 166.4 10.334C166.016 9.79362 165.476 9.52344 164.779 9.52344C164.089 9.52344 163.555 9.79362 163.178 10.334C162.8 10.8678 162.611 11.6979 162.611 12.8242Z" fill="white"/>
<path d="M97.416 32H95.9512L93.0996 27.3223V32H91.6348V24.8906H93.0996L95.9561 29.5781V24.8906H97.416V32ZM101.767 31.4629C101.418 31.8861 100.937 32.0977 100.321 32.0977C99.7549 32.0977 99.3219 31.9349 99.0225 31.6094C98.7262 31.2839 98.5749 30.807 98.5684 30.1787V26.7168H99.9795V30.1299C99.9795 30.68 100.23 30.9551 100.731 30.9551C101.21 30.9551 101.539 30.7891 101.718 30.457V26.7168H103.134V32H101.806L101.767 31.4629ZM101.137 24.5H102.675L101.322 26.0137H100.175L101.137 24.5ZM105.521 26.7168L105.565 27.3076C105.94 26.8486 106.446 26.6191 107.084 26.6191C107.764 26.6191 108.231 26.8877 108.485 27.4248C108.856 26.8877 109.385 26.6191 110.072 26.6191C110.645 26.6191 111.072 26.7868 111.352 27.1221C111.632 27.4541 111.771 27.9554 111.771 28.626V32H110.355V28.6309C110.355 28.3314 110.297 28.1133 110.18 27.9766C110.062 27.8366 109.856 27.7666 109.56 27.7666C109.136 27.7666 108.843 27.9684 108.681 28.3721L108.686 32H107.274V28.6357C107.274 28.3298 107.214 28.1084 107.094 27.9717C106.973 27.835 106.768 27.7666 106.479 27.7666C106.078 27.7666 105.788 27.9326 105.609 28.2646V32H104.198V26.7168H105.521ZM115.292 32.0977C114.517 32.0977 113.886 31.86 113.397 31.3848C112.912 30.9095 112.67 30.2764 112.67 29.4854V29.3486C112.67 28.818 112.772 28.3444 112.978 27.9277C113.183 27.5078 113.472 27.1855 113.847 26.9609C114.224 26.7331 114.654 26.6191 115.136 26.6191C115.858 26.6191 116.426 26.847 116.84 27.3027C117.257 27.7585 117.465 28.4046 117.465 29.2412V29.8174H114.101C114.146 30.1624 114.283 30.4391 114.511 30.6475C114.742 30.8558 115.033 30.96 115.385 30.96C115.928 30.96 116.353 30.763 116.659 30.3691L117.353 31.1455C117.141 31.445 116.854 31.6794 116.493 31.8486C116.132 32.0146 115.731 32.0977 115.292 32.0977ZM115.131 27.7617C114.851 27.7617 114.623 27.8561 114.447 28.0449C114.275 28.2337 114.164 28.5039 114.115 28.8555H116.078V28.7432C116.072 28.4307 115.987 28.1898 115.824 28.0205C115.661 27.848 115.43 27.7617 115.131 27.7617ZM121.239 28.04C121.047 28.014 120.878 28.001 120.731 28.001C120.198 28.001 119.848 28.1816 119.682 28.543V32H118.271V26.7168H119.604L119.643 27.3467C119.926 26.8617 120.318 26.6191 120.819 26.6191C120.976 26.6191 121.122 26.6403 121.259 26.6826L121.239 28.04ZM121.527 29.3096C121.527 28.7855 121.628 28.3184 121.83 27.9082C122.032 27.498 122.322 27.1807 122.699 26.9561C123.08 26.7314 123.521 26.6191 124.022 26.6191C124.735 26.6191 125.316 26.8372 125.766 27.2734C126.218 27.7096 126.47 28.3021 126.522 29.0508L126.532 29.4121C126.532 30.2227 126.306 30.8737 125.854 31.3652C125.401 31.8535 124.794 32.0977 124.032 32.0977C123.271 32.0977 122.662 31.8535 122.206 31.3652C121.754 30.877 121.527 30.2129 121.527 29.373V29.3096ZM122.938 29.4121C122.938 29.9134 123.033 30.2975 123.222 30.5645C123.41 30.8281 123.681 30.96 124.032 30.96C124.374 30.96 124.641 30.8298 124.833 30.5693C125.025 30.3057 125.121 29.8857 125.121 29.3096C125.121 28.818 125.025 28.4372 124.833 28.167C124.641 27.8968 124.371 27.7617 124.022 27.7617C123.677 27.7617 123.41 27.8968 123.222 28.167C123.033 28.4339 122.938 28.849 122.938 29.4121ZM129.672 29.3193C129.672 28.4958 129.856 27.8398 130.224 27.3516C130.595 26.8633 131.101 26.6191 131.742 26.6191C132.257 26.6191 132.681 26.8112 133.017 27.1953V24.5H134.433V32H133.158L133.09 31.4385C132.738 31.8779 132.286 32.0977 131.732 32.0977C131.111 32.0977 130.611 31.8535 130.233 31.3652C129.859 30.8737 129.672 30.1917 129.672 29.3193ZM131.083 29.4219C131.083 29.9167 131.169 30.2959 131.342 30.5596C131.514 30.8232 131.765 30.9551 132.094 30.9551C132.53 30.9551 132.838 30.7712 133.017 30.4033V28.3184C132.841 27.9505 132.536 27.7666 132.104 27.7666C131.423 27.7666 131.083 28.3184 131.083 29.4219ZM137.958 32.0977C137.183 32.0977 136.552 31.86 136.063 31.3848C135.578 30.9095 135.336 30.2764 135.336 29.4854V29.3486C135.336 28.818 135.438 28.3444 135.644 27.9277C135.849 27.5078 136.138 27.1855 136.513 26.9609C136.89 26.7331 137.32 26.6191 137.802 26.6191C138.524 26.6191 139.092 26.847 139.506 27.3027C139.923 27.7585 140.131 28.4046 140.131 29.2412V29.8174H136.767C136.812 30.1624 136.949 30.4391 137.177 30.6475C137.408 30.8558 137.699 30.96 138.051 30.96C138.594 30.96 139.019 30.763 139.325 30.3691L140.019 31.1455C139.807 31.445 139.521 31.6794 139.159 31.8486C138.798 32.0146 138.397 32.0977 137.958 32.0977ZM137.797 27.7617C137.517 27.7617 137.289 27.8561 137.113 28.0449C136.941 28.2337 136.83 28.5039 136.781 28.8555H138.744V28.7432C138.738 28.4307 138.653 28.1898 138.49 28.0205C138.327 27.848 138.096 27.7617 137.797 27.7617ZM145.116 25.418V26.7168H146.02V27.752H145.116V30.3887C145.116 30.584 145.154 30.724 145.229 30.8086C145.303 30.8932 145.447 30.9355 145.658 30.9355C145.814 30.9355 145.953 30.9242 146.073 30.9014V31.9707C145.797 32.0553 145.512 32.0977 145.219 32.0977C144.229 32.0977 143.725 31.598 143.705 30.5986V27.752H142.934V26.7168H143.705V25.418H145.116ZM149.237 32.0977C148.463 32.0977 147.831 31.86 147.343 31.3848C146.858 30.9095 146.615 30.2764 146.615 29.4854V29.3486C146.615 28.818 146.718 28.3444 146.923 27.9277C147.128 27.5078 147.418 27.1855 147.792 26.9609C148.17 26.7331 148.599 26.6191 149.081 26.6191C149.804 26.6191 150.372 26.847 150.785 27.3027C151.202 27.7585 151.41 28.4046 151.41 29.2412V29.8174H148.046C148.091 30.1624 148.228 30.4391 148.456 30.6475C148.687 30.8558 148.979 30.96 149.33 30.96C149.874 30.96 150.299 30.763 150.604 30.3691L151.298 31.1455C151.086 31.445 150.8 31.6794 150.438 31.8486C150.077 32.0146 149.677 32.0977 149.237 32.0977ZM149.076 27.7617C148.796 27.7617 148.568 27.8561 148.393 28.0449C148.22 28.2337 148.109 28.5039 148.061 28.8555H150.023V28.7432C150.017 28.4307 149.932 28.1898 149.77 28.0205C149.607 27.848 149.376 27.7617 149.076 27.7617ZM153.705 32H152.289V24.5H153.705V32ZM157.304 32.0977C156.529 32.0977 155.897 31.86 155.409 31.3848C154.924 30.9095 154.682 30.2764 154.682 29.4854V29.3486C154.682 28.818 154.784 28.3444 154.989 27.9277C155.194 27.5078 155.484 27.1855 155.858 26.9609C156.236 26.7331 156.666 26.6191 157.147 26.6191C157.87 26.6191 158.438 26.847 158.852 27.3027C159.268 27.7585 159.477 28.4046 159.477 29.2412V29.8174H156.112C156.158 30.1624 156.295 30.4391 156.522 30.6475C156.754 30.8558 157.045 30.96 157.396 30.96C157.94 30.96 158.365 30.763 158.671 30.3691L159.364 31.1455C159.153 31.445 158.866 31.6794 158.505 31.8486C158.144 32.0146 157.743 32.0977 157.304 32.0977ZM157.143 27.7617C156.863 27.7617 156.635 27.8561 156.459 28.0449C156.286 28.2337 156.176 28.5039 156.127 28.8555H158.09V28.7432C158.083 28.4307 157.999 28.1898 157.836 28.0205C157.673 27.848 157.442 27.7617 157.143 27.7617ZM157.27 24.5H158.808L157.455 26.0137H156.308L157.27 24.5ZM160.668 32V27.752H159.882V26.7168H160.668V26.2676C160.668 25.6751 160.837 25.2161 161.176 24.8906C161.518 24.5618 161.994 24.3975 162.606 24.3975C162.802 24.3975 163.041 24.43 163.324 24.4951L163.31 25.5889C163.192 25.5596 163.049 25.5449 162.88 25.5449C162.349 25.5449 162.084 25.7939 162.084 26.292V26.7168H163.134V27.752H162.084V32H160.668ZM163.646 29.3096C163.646 28.7855 163.747 28.3184 163.949 27.9082C164.151 27.498 164.441 27.1807 164.818 26.9561C165.199 26.7314 165.64 26.6191 166.142 26.6191C166.854 26.6191 167.436 26.8372 167.885 27.2734C168.337 27.7096 168.59 28.3021 168.642 29.0508L168.651 29.4121C168.651 30.2227 168.425 30.8737 167.973 31.3652C167.52 31.8535 166.913 32.0977 166.151 32.0977C165.39 32.0977 164.781 31.8535 164.325 31.3652C163.873 30.877 163.646 30.2129 163.646 29.373V29.3096ZM165.058 29.4121C165.058 29.9134 165.152 30.2975 165.341 30.5645C165.53 30.8281 165.8 30.96 166.151 30.96C166.493 30.96 166.76 30.8298 166.952 30.5693C167.144 30.3057 167.24 29.8857 167.24 29.3096C167.24 28.818 167.144 28.4372 166.952 28.167C166.76 27.8968 166.49 27.7617 166.142 27.7617C165.797 27.7617 165.53 27.8968 165.341 28.167C165.152 28.4339 165.058 28.849 165.058 29.4121ZM170.819 26.7168L170.863 27.3271C171.241 26.8551 171.747 26.6191 172.382 26.6191C172.942 26.6191 173.358 26.7835 173.632 27.1123C173.905 27.4411 174.045 27.9326 174.052 28.5869V32H172.641V28.6211C172.641 28.3216 172.576 28.1051 172.445 27.9717C172.315 27.835 172.099 27.7666 171.796 27.7666C171.399 27.7666 171.101 27.9359 170.902 28.2744V32H169.491V26.7168H170.819ZM174.906 29.3096C174.906 28.7855 175.007 28.3184 175.209 27.9082C175.411 27.498 175.701 27.1807 176.078 26.9561C176.459 26.7314 176.9 26.6191 177.401 26.6191C178.114 26.6191 178.695 26.8372 179.145 27.2734C179.597 27.7096 179.849 28.3021 179.901 29.0508L179.911 29.4121C179.911 30.2227 179.685 30.8737 179.232 31.3652C178.78 31.8535 178.173 32.0977 177.411 32.0977C176.649 32.0977 176.041 31.8535 175.585 31.3652C175.132 30.877 174.906 30.2129 174.906 29.373V29.3096ZM176.317 29.4121C176.317 29.9134 176.412 30.2975 176.601 30.5645C176.789 30.8281 177.06 30.96 177.411 30.96C177.753 30.96 178.02 30.8298 178.212 30.5693C178.404 30.3057 178.5 29.8857 178.5 29.3096C178.5 28.818 178.404 28.4372 178.212 28.167C178.02 27.8968 177.75 27.7617 177.401 27.7617C177.056 27.7617 176.789 27.8968 176.601 28.167C176.412 28.4339 176.317 28.849 176.317 29.4121Z" fill="#8A8787"/>
</svg>
